# xmcd CD database file
#
# Track frame offsets:
#	182
#	23632
#	52502
#	81437
#	105105
#	134047
#	162977
#	187960
#	221805
#
# Disc length: 3404 seconds
#
# Revision: 0
# Processed by: cddbd v1.5PL3 Copyright (c) Steve Scherf et al.
# Submitted via: cdripper 1.0.7
#
DISCID=6e0d4a09
DTITLE=Quincy Jones - Slow Jams
DYEAR=1996
DGENRE=Jazz
TTITLE0=Bedroom Radio Mix
TTITLE1=Bedroom Mix
TTITLE2=Bedroom Mix Instrumental
TTITLE3=Nappy Neck Funk Radio Mix
TTITLE4=Nappy Neck Funk Mix
TTITLE5=Nappy Neck Funk Instrumental
TTITLE6=Dalvin's Radio Mis
TTITLE7=Dalvin's Full Groove
TTITLE8=Dalvin's Instrumental Groove
EXTD=YEAR: 1996
EXTT0=
EXTT1=
EXTT2=
EXTT3=
EXTT4=
EXTT5=
EXTT6=
EXTT7=
EXTT8=
PLAYORDER=
